<svg width="264" height="181" viewBox="0 0 264 181" fill="none" xmlns="http://www.w3.org/2000/svg">
<g filter="url(#filter0_d_164_132)">
<rect width="224.291" height="141.385" transform="translate(19.75 24.7668)" fill="#D4C9B3"/>
<path d="M19.75 24.7668H244.041V166.152H19.75V24.7668Z" fill="#D4C9B3" stroke="#CBB196"/>
<line x1="73.0457" y1="63.0452" x2="191.483" y2="62.7591" stroke="#C13737" stroke-opacity="0.63"/>
<line x1="73.0457" y1="83.7716" x2="191.483" y2="83.4855" stroke="#C13737" stroke-opacity="0.63"/>
<line x1="73.0457" y1="104.498" x2="191.483" y2="104.212" stroke="#C13737" stroke-opacity="0.63"/>
<line x1="73.0457" y1="125.225" x2="191.483" y2="124.939" stroke="#C13737" stroke-opacity="0.63"/>
<path d="M84.1195 58.2235C87.1569 58.5911 89.9624 58.3449 93.016 58.4084C94.197 58.433 95.5341 58.6783 96.6367 58.1708C98.5133 57.307 99.6966 57.6321 101.663 57.1975C104.777 56.5095 107.942 55.9026 111.232 55.971C112.935 56.0064 114.322 57.1197 116.074 56.3846C118.68 55.2905 118.626 59.429 121.186 57.9858C122.175 57.4281 123.285 56.7046 124.35 56.3133C124.628 56.211 124.987 56.3692 125.251 56.4189C126.735 56.6981 128.317 56.671 129.819 56.6356C131.17 56.6036 132.469 56.4809 133.775 56.1268C134.371 55.9654 135.296 55.405 135.94 55.685C136.709 56.0193 137.192 57.024 138.127 56.6866C138.823 56.4354 139.397 56.8808 140.106 56.8147C141.844 56.6525 143.458 55.4588 145.193 55.4254C147.088 55.3891 148.204 56.804 149.847 57.3301C151.609 57.8938 153.744 58.9172 155.565 59.0656C156.291 59.1247 156.961 58.7291 157.636 58.9522C158.782 59.331 159.649 59.7937 160.886 59.8194C162.479 59.8525 164.117 59.0783 165.771 58.9823C168.007 58.8524 170.517 57.5489 172.763 57.1285C174.108 56.8768 175.407 56.6794 176.77 56.7077" stroke="#E74141" stroke-opacity="0.68"/>
<path d="M84.8906 79.7173C85.4595 82.2772 93.2812 78.0878 95.1446 77.5796C96.8555 77.1129 99.0595 78.3402 100.532 79.0221C102.898 80.1172 103.367 77.6052 105.468 77.5274C106.897 77.4745 109.685 74.542 110.717 75.1985C111.679 75.8111 112.807 75.6737 113.915 75.6504C114.709 75.6337 115.559 75.3921 116.348 75.4592C118.002 75.6 119.043 77.3514 119.998 78.5007C122.077 81.0046 122.094 78.3433 124.377 78.1531C125.694 78.0433 126.868 79.4619 128.392 79.3349C129.198 79.2677 132.533 77.0128 132.824 77.2493C133.205 77.5595 134.199 80.3928 134.527 80.2734C135.055 80.0813 135.29 79.2137 135.761 79.109C137.107 78.8098 138.446 78.7267 139.776 78.2574C142.422 77.3234 143.149 76.3539 145.407 77.9793C145.955 78.3744 146.936 79.8583 147.666 79.5087C148.689 79.0186 150.041 77.875 151.229 77.875C153.45 77.875 156.509 77.8654 158.598 78.3964C160.221 78.8091 162.022 80.6892 163.707 80.5689C164.61 80.5044 165.069 79.489 165.915 79.4044C166.922 79.3037 167.725 78.7788 168.73 78.7788C169.396 78.7788 170.063 78.7788 170.729 78.7788C171.74 78.7788 171.714 80.2344 172.554 80.5515C173.355 80.8541 174.117 79.6238 175.004 79.7346C175.497 79.7962 175.793 79.9398 176.238 79.7173" stroke="#E74141" stroke-opacity="0.7" stroke-linecap="round"/>
</g>
<defs>
<filter id="filter0_d_164_132" x="0.450001" y="0.466846" width="262.891" height="179.985" filterUnits="userSpaceOnUse" color-interpolation-filters="sRGB">
<feFlood flood-opacity="0" result="BackgroundImageFix"/>
<feColorMatrix in="SourceAlpha" type="matrix" values="0 0 0 0 0 0 0 0 0 0 0 0 0 0 0 0 0 0 127 0" result="hardAlpha"/>
<feOffset dy="-5"/>
<feGaussianBlur stdDeviation="9.4"/>
<feComposite in2="hardAlpha" operator="out"/>
<feColorMatrix type="matrix" values="0 0 0 0 0 0 0 0 0 0 0 0 0 0 0 0 0 0 0.25 0"/>
<feBlend mode="normal" in2="BackgroundImageFix" result="effect1_dropShadow_164_132"/>
<feBlend mode="normal" in="SourceGraphic" in2="effect1_dropShadow_164_132" result="shape"/>
</filter>
</defs>
</svg>
