<svg width="226" height="143" viewBox="0 0 226 143" fill="none" xmlns="http://www.w3.org/2000/svg">
<rect width="224.291" height="141.385" transform="translate(0.75 0.766846)" fill="#D4C9B3"/>
<path d="M0.75 0.766846H225.041V142.152H0.75V0.766846Z" fill="#D4C9B3" stroke="#330B0B"/>
<line x1="54.0457" y1="39.0451" x2="172.483" y2="38.759" stroke="#C13737" stroke-opacity="0.63"/>
<line x1="54.0457" y1="59.7716" x2="172.483" y2="59.4856" stroke="#C13737" stroke-opacity="0.63"/>
<line x1="54.0457" y1="80.4982" x2="172.483" y2="80.2121" stroke="#C13737" stroke-opacity="0.63"/>
<line x1="54.0457" y1="101.225" x2="172.483" y2="100.939" stroke="#C13737" stroke-opacity="0.63"/>
<path d="M65.1195 34.2235C68.1569 34.5911 70.9624 34.345 74.016 34.4085C75.197 34.433 76.5341 34.6783 77.6367 34.1708C79.5133 33.3071 80.6966 33.6321 82.6633 33.1976C85.7771 32.5096 88.942 31.9026 92.2323 31.9711C93.9353 32.0065 95.3224 33.1197 97.0737 32.3846C99.6801 31.2905 99.6262 35.429 102.186 33.9859C103.175 33.4281 104.285 32.7047 105.35 32.3133C105.628 32.2111 105.987 32.3693 106.251 32.4189C107.735 32.6981 109.317 32.6711 110.819 32.6356C112.17 32.6037 113.469 32.4809 114.775 32.1268C115.371 31.9654 116.296 31.405 116.94 31.6851C117.709 32.0194 118.192 33.0241 119.127 32.6866C119.823 32.4355 120.397 32.8808 121.106 32.8147C122.844 32.6526 124.458 31.4588 126.193 31.4255C128.088 31.3891 129.204 32.804 130.847 33.3301C132.609 33.8938 134.744 34.9172 136.565 35.0656C137.291 35.1248 137.961 34.7292 138.636 34.9522C139.782 35.3311 140.649 35.7937 141.886 35.8194C143.479 35.8525 145.117 35.0783 146.771 34.9823C149.007 34.8524 151.517 33.5489 153.763 33.1285C155.108 32.8768 156.407 32.6794 157.77 32.7077" stroke="#E74141" stroke-opacity="0.68"/>
<path d="M65.8906 55.7172C66.4595 58.2771 74.2812 54.0877 76.1446 53.5795C77.8555 53.1129 80.0595 54.3402 81.5323 55.022C83.8978 56.1172 84.3673 53.6052 86.4681 53.5274C87.8974 53.4744 90.6851 50.542 91.7168 51.1985C92.6794 51.8111 93.8075 51.6737 94.9146 51.6504C95.7086 51.6337 96.5589 51.3921 97.3478 51.4592C99.0022 51.6 100.043 53.3514 100.998 54.5006C103.077 57.0046 103.094 54.3433 105.377 54.1531C106.694 54.0433 107.868 55.4618 109.392 55.3349C110.198 55.2677 113.533 53.0128 113.824 53.2493C114.205 53.5594 115.199 56.3927 115.527 56.2734C116.055 56.0812 116.29 55.2136 116.761 55.1089C118.107 54.8097 119.446 54.7267 120.776 54.2573C123.422 53.3233 124.149 52.3538 126.407 53.9793C126.955 54.3744 127.936 55.8582 128.666 55.5087C129.689 55.0186 131.041 53.875 132.229 53.875C134.45 53.875 137.509 53.8654 139.598 54.3964C141.221 54.8091 143.022 56.6892 144.707 56.5688C145.61 56.5044 146.069 55.489 146.915 55.4044C147.922 55.3036 148.725 54.7787 149.73 54.7787C150.396 54.7787 151.063 54.7787 151.729 54.7787C152.74 54.7787 152.714 56.2344 153.554 56.5514C154.355 56.8541 155.117 55.6238 156.004 55.7346C156.497 55.7962 156.793 55.9398 157.238 55.7172" stroke="#E74141" stroke-opacity="0.7" stroke-linecap="round"/>
</svg>
